<?xml version="1.0" encoding="utf-8"?>
<!-- Generator: Adobe Illustrator 23.0.2, SVG Export Plug-In . SVG Version: 6.00 Build 0)  -->
<svg version="1.1" id="Capa_1" xmlns="http://www.w3.org/2000/svg" xmlns:xlink="http://www.w3.org/1999/xlink" x="0px" y="0px"
	 viewBox="0 0 914.6 927.1" style="enable-background:new 0 0 914.6 927.1;" xml:space="preserve">
<style type="text/css">
	.st0{fill:#EB594E;}
	.st1{fill:#FAC752;}
	.st2{fill:#FAC753;}
	.st3{fill:#FAC751;}
	.st4{fill:#DDDED3;}
	.st5{fill:#51B8C1;}
	.st6{fill:#EA5B4E;}
	.st7{fill:#E95C4F;}
	.st8{fill:#EA5B4F;}
	.st9{fill:#EB5A4E;}
	.st10{fill:#E95A4D;}
	.st11{fill:#EA5A4E;}
	.st12{fill:#F6F7E9;}
	.st13{fill:#D33F3D;}
	.st14{fill:#E85A4A;}
	.st15{fill:#EA5952;}
	.st16{fill:#A42F30;}
	.st17{fill:#A42F2F;}
	.st18{fill:#DDDED4;}
	.st19{fill:#010202;}
	.st20{fill:#5EB56A;}
	.st21{fill:none;}
</style>
<g>
	<rect x="116.2" y="127.5" class="st19" width="649.5" height="672"/>
	<path id="Trazado_5" class="st20" d="M796.5,27.5H118.1c-96.8,0-96.9-2.7-96.9,96.9v678.3c0,99.6,3.3,96.9,96.9,96.9h678.3
		c93.6,0,96.9,3.2,96.9-96.9V124.4c0-0.2,0-0.4-0.1-3.4C891.4,25.2,885.5,27.5,796.5,27.5z M699.6,512H505.7v193.8h-96.9V512H215
		v-96.9h193.8V221.3h96.9v193.8h193.8V512z"/>
</g>
<path id="Trazado_6" class="st21" d="M-132.1-117.9h1162.8V1045H-132.1V-117.9z"/>
</svg>
