<?xml version="1.0" encoding="utf-8"?>
<!-- Generator: Adobe Illustrator 23.0.2, SVG Export Plug-In . SVG Version: 6.00 Build 0)  -->
<svg version="1.1" id="Capa_1" xmlns="http://www.w3.org/2000/svg" xmlns:xlink="http://www.w3.org/1999/xlink" x="0px" y="0px"
	 viewBox="0 0 18.1 20.1" style="enable-background:new 0 0 18.1 20.1;" xml:space="preserve">
<style type="text/css">
	.st0{fill:#F5F6E8;}
	.st1{fill:none;}
	.st2{fill:#F9C652;}
	.st3{fill:#D60000;}
	.st4{fill:#DCDDD2;}
	.st5{clip-path:url(#SVGID_2_);fill:#F5F6E8;}
	.st6{clip-path:url(#SVGID_2_);fill:#EA594E;}
	.st7{clip-path:url(#SVGID_2_);fill:#F9C652;}
	.st8{clip-path:url(#SVGID_2_);fill:#F9C653;}
	.st9{clip-path:url(#SVGID_2_);fill:#F9C751;}
	.st10{clip-path:url(#SVGID_2_);fill:#DCDDD2;}
	.st11{clip-path:url(#SVGID_2_);fill:#EA5B4E;}
	.st12{clip-path:url(#SVGID_2_);fill:#E85C4E;}
	.st13{clip-path:url(#SVGID_2_);fill:#E95B4E;}
	.st14{clip-path:url(#SVGID_2_);fill:#EA5A4E;}
	.st15{clip-path:url(#SVGID_2_);fill:#E95A4D;}
	.st16{clip-path:url(#SVGID_2_);fill:#D23F3E;}
	.st17{clip-path:url(#SVGID_2_);fill:#E75A4A;}
	.st18{clip-path:url(#SVGID_2_);fill:#E95952;}
	.st19{clip-path:url(#SVGID_2_);fill:#A42F2F;}
	.st20{clip-path:url(#SVGID_2_);fill:#A32F2F;}
	.st21{clip-path:url(#SVGID_2_);fill:#DCDED3;}
	.st22{clip-path:url(#SVGID_2_);fill:#51B7C0;}
</style>
<rect x="1.3" y="6.4" class="st0" width="15.4" height="12.3"/>
<path class="st1" d="M-3-1h24v24H-3V-1z"/>
<path class="st1" d="M16,18V7H2v11H16z M9,11h5v5H9V11z"/>
<rect x="9" y="11" class="st2" width="5" height="5"/>
<rect x="2" y="7" class="st1" width="14" height="11"/>
<path class="st3" d="M16,2h-1V0h-2v2H5V0H3v2H2c-1.1,0-2,0.9-2,2l0,3h2h14h2V4C18,2.9,17.1,2,16,2z"/>
<path class="st4" d="M16,18H2V7H0l0,11c0,1.1,0.9,2,2,2h14c1.1,0,2-0.9,2-2V7h-2V18z"/>
<rect x="3" y="0" class="st2" width="2" height="3.3"/>
<rect x="13" y="0" class="st2" width="2" height="3.3"/>
</svg>
